<?xml version="1.0" encoding="UTF-8"?><svg id="Ebene_1" xmlns="http://www.w3.org/2000/svg" viewBox="0 0 200 34"><defs><style>.cls-1{fill:#264090;stroke-width:0px;}</style></defs><path class="cls-1" d="M90.33,17h0c0,1.4-1.13,2.53-2.53,2.53h0c-1.4,0-2.53-1.13-2.53-2.53h0c0-1.4,1.13-2.53,2.53-2.53h0c1.4,0,2.53,1.13,2.53,2.53Z"/><path class="cls-1" d="M4.81,33.16H0V.77h4.81v8.71h.07C6.27,3.14,10.59,0,16.44,0c7.73,0,10.87,4.39,11.63,10.1h.07c1.05-6.76,4.88-10.1,11.49-10.1,9.06,0,11.98,5.85,11.98,12.82v20.34h-4.81V13.86c0-4.81-2.02-9.47-8.64-9.47-6.2,0-9.96,3.48-9.96,9.47v19.3h-4.81V13.86c0-4.81-2.02-9.47-8.64-9.47-6.2,0-9.96,3.48-9.96,9.47v19.3Z"/><path class="cls-1" d="M67.01,33.16L53.48.82l4.87-.02,6.07,15.18c1.51,3.77,3.34,8.25,4.53,11.7h.38c1.29-3.5,3.07-7.92,4.58-11.7l6.09-15.13,4.75-.03-13.53,32.34h-4.2Z"/><path class="cls-1" d="M97.95,33.16V.82h4.74v32.34h-4.74Z"/><path class="cls-1" d="M114.91,33.16h-4.81V.77h4.81v8.71h.07c1.39-6.34,5.71-9.47,11.56-9.47,8.92,0,11.77,5.85,11.77,12.82v20.34h-4.81V13.86c0-4.81-2.02-9.47-8.64-9.47-6.2,0-9.96,3.48-9.96,9.47v19.3Z"/><path class="cls-1" d="M153.89,19.47c-2.56-.3-4.62,0-4.62,0v13.69h-4.73V.82h4.73v15.31s2.09.2,4.62,0c12.2-.99,11.3-15.31,11.3-15.31h4.8v.11s.36,15.24-13.08,16.65c0,0,12.45.06,14,15.47,0,.03,0,.11,0,.11h-5.12s.04-12.3-11.9-13.69Z"/><path class="cls-1" d="M172.55,22.43l4.53-.91c1.25,4.74,3.62,8.43,10.52,8.43,5.09,0,7.59-2.16,7.66-5.5,0-3.06-2.16-4.6-9.54-5.78-8.29-1.46-11.42-4.46-11.42-9.47,0-5.36,3.97-9.2,11.7-9.2s11.49,3.76,13.1,10.24l-4.6,1.11c-1.32-5.36-3.76-7.45-8.43-7.45s-7.04,1.95-7.04,5.02,2.02,4.88,8.78,5.92c8.71,1.39,12.19,4.46,12.19,9.54,0,5.78-4.04,9.61-12.47,9.61-9.75,0-13.45-4.6-14.98-11.56Z"/></svg>