<?xml version="1.0" encoding="UTF-8"?><svg id="Ebene_1" xmlns="http://www.w3.org/2000/svg" viewBox="0 0 96.51 96.57"><defs><style>.cls-1{fill:#f9f9f1;stroke-width:0px;}</style></defs><path class="cls-1" d="M21.19,75.69c-.04.26.19.48.45.43,0,0,5.8-.75,7.85-1.42,4.34-1.43,9.7-.91,12.84-13.32,0,0,.82-4.46,2.6-9.23.12-.31-.18-.6-.49-.48-4.73,1.96-9.41,3.01-9.41,3.01-12.3,3.56-11.89,8.83-12.86,13.29-.56,2.58-1,7.71-1,7.71Z"/><path class="cls-1" d="M20.87,21.19c-.26-.04-.48.19-.43.45,0,0,.75,5.8,1.42,7.85,1.43,4.34.91,9.7,13.32,12.84,0,0,4.46.82,9.23,2.6.31.12.6-.18.48-.49-1.96-4.73-3.01-9.41-3.01-9.41-3.56-12.3-8.83-11.89-13.29-12.86-2.58-.56-7.71-1-7.71-1Z"/><path class="cls-1" d="M75.38,20.87c.04-.26-.19-.48-.45-.43,0,0-5.8.75-7.85,1.42-4.34,1.43-9.7.91-12.84,13.32,0,0-.82,4.46-2.6,9.23-.12.31.18.6.49.48,4.73-1.96,9.41-3.01,9.41-3.01,12.3-3.56,11.89-8.83,12.86-13.29.56-2.58,1-7.71,1-7.71Z"/><path class="cls-1" d="M75.69,75.38c.26.04.48-.19.43-.45,0,0-.75-5.8-1.42-7.85-1.43-4.34-.91-9.7-13.32-12.84,0,0-4.46-.82-9.23-2.6-.31-.12-.6.18-.48.49,1.96,4.73,3.01,9.41,3.01,9.41,3.56,12.3,8.83,11.89,13.29,12.86,2.58.56,7.71,1,7.71,1Z"/><path class="cls-1" d="M48.72.16c-.25-.21-.62-.22-.87-.02-1.78,1.36-4.67,5.59-4.67,5.59,0,0-4.42,5.27-4.51,12.92,3.36,1.57,6.13,4.31,7.59,10.05,1.27,5.02,1.25,7.07,1.42,10.02h1.23c.19-2.9.08-4.48,1.4-10.11,1.2-5.13,3.84-7.99,7.68-9.86,0-7.66-4.56-13.09-4.56-13.09,0,0-2.96-4.05-4.68-5.5Z"/><circle class="cls-1" cx="48.28" cy="48.28" r="1.29"/><path class="cls-1" d="M96.35,48.69c.21-.25.22-.62.02-.87-1.36-1.78-5.59-4.67-5.59-4.67,0,0-5.27-4.42-12.92-4.51-1.57,3.36-4.31,6.13-10.05,7.59-5.02,1.27-7.07,1.25-10.02,1.42v1.23c2.9.19,4.48.08,10.11,1.4,5.13,1.2,7.99,3.84,9.86,7.68,7.66,0,13.09-4.56,13.09-4.56,0,0,4.05-2.96,5.5-4.68Z"/><path class="cls-1" d="M.16,47.91c-.21.25-.22.62-.02.87,1.36,1.78,5.59,4.67,5.59,4.67,0,0,5.27,4.42,12.92,4.51,1.57-3.36,4.31-6.13,10.05-7.59,5.02-1.27,7.07-1.25,10.02-1.42v-1.23c-2.9-.19-4.48-.08-10.11-1.4-5.13-1.2-7.99-3.84-9.86-7.68-7.66,0-13.09,4.56-13.09,4.56,0,0-4.05,2.96-5.5,4.68Z"/><path class="cls-1" d="M47.85,96.4c.25.21.62.22.87.02,1.78-1.36,4.67-5.59,4.67-5.59,0,0,4.42-5.27,4.51-12.92-3.36-1.57-6.13-4.31-7.59-10.05-1.27-5.02-1.25-7.07-1.42-10.02h-1.23c-.19,2.9-.08,4.48-1.4,10.11-1.2,5.13-3.84,7.99-7.68,9.86,0,7.66,4.56,13.09,4.56,13.09,0,0,2.96,4.05,4.68,5.5Z"/></svg>