<?xml version="1.0" encoding="UTF-8"?><svg id="Ebene_1" xmlns="http://www.w3.org/2000/svg" viewBox="0 0 140.03 140.08"><defs><style>.cls-1{fill:#264090;stroke-width:0px;}</style></defs><path class="cls-1" d="M42.53,97.87c-.04.26.2.49.46.43,0,0,5.89-.76,7.98-1.44,4.41-1.45,9.85-.93,13.04-13.53,0,0,.83-4.53,2.64-9.37.12-.32-.19-.61-.5-.48-4.8,1.99-9.55,3.06-9.55,3.06-12.49,3.61-12.07,8.96-13.06,13.5-.57,2.62-1.01,7.83-1.01,7.83Z"/><path class="cls-1" d="M37.36,104.49c-.43.09-.81-.28-.75-.71,0,0-.07-9.04.86-13.3.32-1.46.57-2.93.86-4.37-8.41,6.28-9.12,14.36-9.12,14.36,0,0-1.67,6.76-1.01,12.16.04.37.34.66.71.69,4.68.34,11.99-1.62,11.99-1.62,0,0,8.23-1.02,14.33-9.57-1.47.4-3,.77-4.68,1.1-3.51.7-13.2,1.26-13.2,1.26Z"/><path class="cls-1" d="M42.2,42.53c-.26-.04-.49.2-.43.46,0,0,.76,5.89,1.44,7.98,1.45,4.41.93,9.85,13.53,13.04,0,0,4.53.83,9.37,2.64.32.12.61-.19.48-.5-1.99-4.8-3.06-9.55-3.06-9.55-3.61-12.49-8.96-12.07-13.5-13.06-2.62-.57-7.83-1.01-7.83-1.01Z"/><path class="cls-1" d="M35.59,37.36c-.09-.43.28-.81.71-.75,0,0,9.04-.07,13.3.86,1.46.32,2.93.57,4.37.86-6.28-8.41-14.36-9.12-14.36-9.12,0,0-6.76-1.67-12.16-1.01-.37.04-.66.34-.69.71-.34,4.68,1.62,11.99,1.62,11.99,0,0,1.02,8.23,9.57,14.33-.4-1.47-.77-3-1.1-4.68-.7-3.51-1.26-13.2-1.26-13.2Z"/><path class="cls-1" d="M97.55,42.2c.04-.26-.2-.49-.46-.43,0,0-5.89.76-7.98,1.44-4.41,1.45-9.85.93-13.04,13.53,0,0-.83,4.53-2.64,9.37-.12.32.19.61.5.48,4.8-1.99,9.55-3.06,9.55-3.06,12.49-3.61,12.07-8.96,13.06-13.5.57-2.62,1.01-7.83,1.01-7.83Z"/><path class="cls-1" d="M102.72,35.59c.43-.09.81.28.75.71,0,0,.07,9.04-.86,13.3-.32,1.46-.57,2.93-.86,4.37,8.41-6.28,9.12-14.36,9.12-14.36,0,0,1.67-6.76,1.01-12.16-.04-.37-.34-.66-.71-.69-4.68-.34-11.99,1.62-11.99,1.62,0,0-8.23,1.02-14.33,9.57,1.47-.4,3-.77,4.68-1.1,3.51-.7,13.2-1.26,13.2-1.26Z"/><path class="cls-1" d="M97.87,97.55c.26.04.49-.2.43-.46,0,0-.76-5.89-1.44-7.98-1.45-4.41-.93-9.85-13.53-13.04,0,0-4.53-.83-9.37-2.64-.32-.12-.61.19-.48.5,1.99,4.8,3.06,9.55,3.06,9.55,3.61,12.49,8.96,12.07,13.5,13.06,2.62.57,7.83,1.01,7.83,1.01Z"/><path class="cls-1" d="M104.48,102.72c.09.43-.28.81-.71.75,0,0-9.04.07-13.3-.86-1.46-.32-2.93-.57-4.37-.86,6.28,8.41,14.36,9.12,14.36,9.12,0,0,6.76,1.67,12.16,1.01.37-.04.66-.34.69-.71.34-4.68-1.62-11.99-1.62-11.99,0,0-1.02-8.23-9.57-14.33.4,1.47.77,3,1.1,4.68.7,3.51,1.26,13.2,1.26,13.2Z"/><path class="cls-1" d="M139.89,70.33c.2-.28.18-.68-.04-.95-5.31-6.34-12.35-10.66-12.35-10.66,0,0-7.33-5.66-20.24-2.68,7.83,1.67,12.89,6.26,12.89,6.26,0,0,5.95,4.4,7.86,7.09.28.39.26.95-.03,1.33-2.04,2.62-7.73,7.11-7.73,7.11,0,0-5.2,4.71-13.07,6.36,13.34,3.27,20.88-2.86,20.88-2.86,0,0,7.63-5.12,11.83-11Z"/><circle class="cls-1" cx="116.8" cy="48.49" r="1.3"/><circle class="cls-1" cx="116.86" cy="91.7" r="1.3"/><path class="cls-1" d="M69.72,139.94c.28.2.68.18.95-.04,6.34-5.31,10.66-12.35,10.66-12.35,0,0,5.66-7.33,2.68-20.24-1.67,7.83-6.26,12.89-6.26,12.89,0,0-4.4,5.95-7.09,7.86-.39.28-.95.26-1.33-.03-2.62-2.04-7.11-7.73-7.11-7.73,0,0-4.71-5.2-6.36-13.07-3.27,13.34,2.86,20.88,2.86,20.88,0,0,5.12,7.63,11,11.83Z"/><circle class="cls-1" cx="91.56" cy="116.85" r="1.3"/><circle class="cls-1" cx="48.35" cy="116.91" r="1.3"/><path class="cls-1" d="M70.36.14c-.28-.2-.68-.18-.95.04-6.34,5.31-10.66,12.35-10.66,12.35,0,0-5.66,7.33-2.68,20.24,1.67-7.83,6.26-12.89,6.26-12.89,0,0,4.4-5.95,7.09-7.86.39-.28.95-.26,1.33.03,2.62,2.04,7.11,7.73,7.11,7.73,0,0,4.71,5.2,6.36,13.07,3.27-13.34-2.86-20.88-2.86-20.88,0,0-5.12-7.63-11-11.83Z"/><circle class="cls-1" cx="48.51" cy="23.23" r="1.3"/><circle class="cls-1" cx="91.72" cy="23.17" r="1.3"/><path class="cls-1" d="M70.48,21.18c-.25-.21-.63-.22-.89-.02-1.8,1.38-4.74,5.68-4.74,5.68,0,0-4.49,5.35-4.58,13.12,3.41,1.59,6.23,4.37,7.7,10.21,1.29,5.1,1.27,7.18,1.44,10.18h1.25c.2-2.95.08-4.55,1.42-10.27,1.21-5.2,3.89-8.12,7.79-10.01,0-7.78-4.64-13.3-4.64-13.3,0,0-3-4.11-4.76-5.59Z"/><path class="cls-1" d="M.14,69.8c-.2.28-.18.68.04.95,5.31,6.34,12.35,10.66,12.35,10.66,0,0,7.33,5.66,20.24,2.68-7.83-1.67-12.89-6.26-12.89-6.26,0,0-5.95-4.4-7.86-7.09-.28-.39-.26-.95.03-1.33,2.04-2.62,7.73-7.11,7.73-7.11,0,0,5.2-4.71,13.07-6.36-13.34-3.27-20.88,2.86-20.88,2.86,0,0-7.63,5.12-11.83,11Z"/><circle class="cls-1" cx="23.23" cy="91.64" r="1.3"/><circle class="cls-1" cx="23.17" cy="48.43" r="1.3"/><circle class="cls-1" cx="70.04" cy="70.04" r="1.3"/><path class="cls-1" d="M118.85,70.45c.21-.25.22-.63.02-.89-1.38-1.8-5.68-4.74-5.68-4.74,0,0-5.35-4.49-13.12-4.58-1.59,3.41-4.37,6.23-10.21,7.7-5.1,1.29-7.18,1.27-10.18,1.44v1.25c2.95.2,4.55.08,10.27,1.42,5.2,1.21,8.12,3.89,10.01,7.79,7.78,0,13.3-4.64,13.3-4.64,0,0,4.11-3,5.59-4.76Z"/><path class="cls-1" d="M21.18,69.66c-.21.25-.22.63-.02.89,1.38,1.8,5.68,4.74,5.68,4.74,0,0,5.35,4.49,13.12,4.58,1.59-3.41,4.37-6.23,10.21-7.7,5.1-1.29,7.18-1.27,10.18-1.44v-1.25c-2.95-.2-4.55-.08-10.27-1.42-5.2-1.21-8.12-3.89-10.01-7.79-7.78,0-13.3,4.64-13.3,4.64,0,0-4.11,3-5.59,4.76Z"/><path class="cls-1" d="M69.6,118.9c.25.21.63.22.89.02,1.8-1.38,4.74-5.68,4.74-5.68,0,0,4.49-5.35,4.58-13.12-3.41-1.59-6.23-4.37-7.7-10.21-1.29-5.1-1.27-7.18-1.44-10.18h-1.25c-.2,2.95-.08,4.55-1.42,10.27-1.21,5.2-3.89,8.12-7.79,10.01,0,7.78,4.64,13.3,4.64,13.3,0,0,3,4.11,4.76,5.59Z"/></svg>